<svg id="visual" viewBox="0 0 900 600" width="900" height="600" xmlns="http://www.w3.org/2000/svg" xmlns:xlink="http://www.w3.org/1999/xlink" version="1.1"><path d="M0 79L82 79L82 145L164 145L164 109L245 109L245 109L327 109L327 85L409 85L409 97L491 97L491 85L573 85L573 133L655 133L655 73L736 73L736 91L818 91L818 115L900 115L900 139L900 0L900 0L818 0L818 0L736 0L736 0L655 0L655 0L573 0L573 0L491 0L491 0L409 0L409 0L327 0L327 0L245 0L245 0L164 0L164 0L82 0L82 0L0 0Z" fill="#fa7268"></path><path d="M0 289L82 289L82 295L164 295L164 229L245 229L245 325L327 325L327 199L409 199L409 265L491 265L491 253L573 253L573 361L655 361L655 169L736 169L736 211L818 211L818 223L900 223L900 343L900 137L900 113L818 113L818 89L736 89L736 71L655 71L655 131L573 131L573 83L491 83L491 95L409 95L409 83L327 83L327 107L245 107L245 107L164 107L164 143L82 143L82 77L0 77Z" fill="#ea5e66"></path><path d="M0 469L82 469L82 469L164 469L164 433L245 433L245 481L327 481L327 409L409 409L409 481L491 481L491 457L573 457L573 481L655 481L655 421L736 421L736 457L818 457L818 487L900 487L900 409L900 341L900 221L818 221L818 209L736 209L736 167L655 167L655 359L573 359L573 251L491 251L491 263L409 263L409 197L327 197L327 323L245 323L245 227L164 227L164 293L82 293L82 287L0 287Z" fill="#d84a64"></path><path d="M0 547L82 547L82 559L164 559L164 547L245 547L245 559L327 559L327 499L409 499L409 559L491 559L491 505L573 505L573 535L655 535L655 511L736 511L736 505L818 505L818 541L900 541L900 523L900 407L900 485L818 485L818 455L736 455L736 419L655 419L655 479L573 479L573 455L491 455L491 479L409 479L409 407L327 407L327 479L245 479L245 431L164 431L164 467L82 467L82 467L0 467Z" fill="#c53762"></path><path d="M0 601L82 601L82 601L164 601L164 601L245 601L245 601L327 601L327 601L409 601L409 601L491 601L491 601L573 601L573 601L655 601L655 601L736 601L736 601L818 601L818 601L900 601L900 601L900 521L900 539L818 539L818 503L736 503L736 509L655 509L655 533L573 533L573 503L491 503L491 557L409 557L409 497L327 497L327 557L245 557L245 545L164 545L164 557L82 557L82 545L0 545Z" fill="#b0235f"></path></svg>